STARTFONT 2.1
FONT -Adobe-Utopia-Bold-R-Normal--33-240-100-100-P-186-ISO8859-2
SIZE 24 100 100
FONTBOUNDINGBOX 47 39 -5 -8
STARTPROPERTIES 29
FOUNDRY "Adobe"
FAMILY_NAME "Utopia"
WEIGHT_NAME "Bold"
SLANT "R"
SETWIDTH_NAME "Normal"
ADD_STYLE_NAME ""
PIXEL_SIZE 33
POINT_SIZE 240
RESOLUTION_X 100
RESOLUTION_Y 100
SPACING "P"
AVERAGE_WIDTH 186
CHARSET_REGISTRY "ISO8859"
CHARSET_ENCODING "2"
CAP_HEIGHT 23
X_HEIGHT 16
RELATIVE_SETWIDTH 50
RELATIVE_WEIGHT 70
WEIGHT 218
FACE_NAME "Utopia Bold"
COPYRIGHT "Copyright (c) 1989, 1991 Adobe Systems Incorporated.  All Rights Reserved., Copyright 1996 Cub Soft"
NOTICE "Utopia is a registered trademark of Adobe Systems Incorporated."
DESTINATION 0
FONT_ASCENT 31
FONT_DESCENT 8
DEFAULT_CHAR 32
_ADOBE_PSFONT "Utopia-Bold"
_ADOBE_XFONT "-Adobe-Utopia-Bold-R-Normal--33-240-100-100-P-186-ISO8859-2"
_DEC_DEVICE_FONTNAMES "PS=Utopia-Bold"
ENDPROPERTIES
CHARS 191
STARTCHAR space
ENCODING 32
SWIDTH 210 0
DWIDTH 7 0
BBX 0 0 0 0
BITMAP
ENDCHAR
STARTCHAR exclam
ENCODING 33
SWIDTH 278 0
DWIDTH 9 0
BBX 6 24 2 0
BITMAP
78
fc
fc
fc
fc
78
78
78
78
78
78
78
78
30
30
30
00
00
78
78
fc
fc
78
30
ENDCHAR
STARTCHAR quotedbl
ENCODING 34
SWIDTH 473 0
DWIDTH 16 0
BBX 11 10 2 14
BITMAP
71c0
f1e0
fbe0
f1e0
71c0
71c0
71c0
71c0
60c0
6080
ENDCHAR
STARTCHAR numbersign
ENCODING 35
SWIDTH 560 0
DWIDTH 19 0
BBX 18 22 0 0
BITMAP
00c380
01c300
01c700
018700
018600
038600
038e00
3fffc0
3fffc0
061c00
061800
0e1800
ffff00
ffff00
1c7000
187000
186000
386000
38e000
30c000
70c000
010000
ENDCHAR
STARTCHAR dollar
ENCODING 36
SWIDTH 560 0
DWIDTH 19 0
BBX 16 29 1 -3
BITMAP
0180
0180
0180
07e0
1ff8
39bc
799e
f19e
f18c
f980
fd80
ff80
7fe0
3ff0
1ffc
07fe
01fe
01bf
019f
218f
718f
f18e
f98e
7d9c
3ff8
07e0
0180
0180
0180
ENDCHAR
STARTCHAR percent
ENCODING 37
SWIDTH 887 0
DWIDTH 30 0
BBX 27 24 1 -1
BITMAP
1f001c00
39c01800
70fff800
f0f07000
f0f06000
f0f0e000
f0f1c000
f0f18000
f0f38000
f0e30000
70e70000
39ce3f00
1f8c7380
001ce1c0
0019e1e0
0031e1e0
0071e1e0
0061e1e0
00c1e1e0
01c1e1e0
0180e1c0
03807380
03003f00
01000000
ENDCHAR
STARTCHAR ampersand
ENCODING 38
SWIDTH 748 0
DWIDTH 25 0
BBX 23 23 1 0
BITMAP
01e000
07f800
0f3c00
0e1e00
1e1e00
1e1e00
1e1e00
1f3c00
0fbc18
0ff038
07e03c
0ff03c
1ff838
7dfc38
78fe38
f8ff70
f87fe0
f81fe0
fc0fe0
7c07f0
7f0ff8
3ffcfc
07e03e
ENDCHAR
STARTCHAR apostrophe
ENCODING 39
SWIDTH 252 0
DWIDTH 8 0
BBX 6 11 1 13
BITMAP
30
78
78
7c
3c
38
38
30
60
c0
40
ENDCHAR
STARTCHAR parenleft
ENCODING 40
SWIDTH 365 0
DWIDTH 12 0
BBX 8 28 3 -4
BITMAP
07
0e
1c
38
38
70
70
70
70
e0
e0
e0
e0
e0
e0
e0
e0
e0
e0
70
70
70
70
38
38
1c
0e
07
ENDCHAR
STARTCHAR parenright
ENCODING 41
SWIDTH 365 0
DWIDTH 12 0
BBX 8 28 1 -4
BITMAP
e0
70
38
1c
1c
0e
0e
0e
0e
07
07
07
07
07
07
07
07
07
07
0e
0e
0e
0e
1c
1c
38
70
e0
ENDCHAR
STARTCHAR asterisk
ENCODING 42
SWIDTH 442 0
DWIDTH 15 0
BBX 12 13 1 11
BITMAP
0600
0600
4620
e670
fff0
1f80
0f00
3fc0
f6f0
e670
4620
0600
0600
ENDCHAR
STARTCHAR plus
ENCODING 43
SWIDTH 600 0
DWIDTH 20 0
BBX 15 17 3 0
BITMAP
0380
0380
0380
0380
0380
0380
0380
fffe
fffe
fffe
0380
0380
0380
0380
0380
0380
0380
ENDCHAR
STARTCHAR comma
ENCODING 44
SWIDTH 280 0
DWIDTH 9 0
BBX 6 12 1 -6
BITMAP
30
78
78
7c
7c
3c
38
38
30
60
c0
40
ENDCHAR
STARTCHAR minus
ENCODING 45
SWIDTH 600 0
DWIDTH 20 0
BBX 16 3 2 7
BITMAP
ffff
ffff
ffff
ENDCHAR
STARTCHAR period
ENCODING 46
SWIDTH 280 0
DWIDTH 9 0
BBX 6 6 2 0
BITMAP
30
78
fc
fc
78
30
ENDCHAR
STARTCHAR slash
ENCODING 47
SWIDTH 378 0
DWIDTH 13 0
BBX 10 24 1 0
BITMAP
01c0
03c0
0380
0380
0380
0700
0700
0700
0f00
0e00
0e00
0e00
1c00
1c00
1c00
3c00
3800
3800
3800
7000
7000
7000
f000
e000
ENDCHAR
STARTCHAR zero
ENCODING 48
SWIDTH 560 0
DWIDTH 19 0
BBX 17 23 1 0
BITMAP
01c000
0ff800
1e3c00
3c1e00
7c1e00
780f00
780f00
f80f80
f80f80
f80f80
f80f80
f80f80
f80f80
f80f80
f80f80
f80f80
780f00
780f00
3c1f00
3c1e00
1e3c00
0ff800
01c000
ENDCHAR
STARTCHAR one
ENCODING 49
SWIDTH 560 0
DWIDTH 19 0
BBX 11 23 4 0
BITMAP
0700
ff00
ff00
1f00
1f00
1f00
1f00
1f00
1f00
1f00
1f00
1f00
1f00
1f00
1f00
1f00
1f00
1f00
1f00
1f00
1f00
1f00
ffe0
ENDCHAR
STARTCHAR two
ENCODING 50
SWIDTH 560 0
DWIDTH 19 0
BBX 17 23 1 0
BITMAP
03f000
0ffc00
3e3e00
3c1e00
7c1f00
7c1f00
381f00
101f00
001f00
003e00
003e00
007c00
00f000
01e000
03c000
070000
0e0000
1c0080
380180
7fff00
7fff00
ffff00
ffff00
ENDCHAR
STARTCHAR three
ENCODING 51
SWIDTH 560 0
DWIDTH 19 0
BBX 16 23 1 0
BITMAP
07c0
1ff8
3c7c
783c
f83e
783e
303e
003e
003c
0078
1fe0
1ff0
007c
003e
001e
001f
301f
701f
f81f
fc3e
7c3c
3ff8
07c0
ENDCHAR
STARTCHAR four
ENCODING 52
SWIDTH 560 0
DWIDTH 19 0
BBX 17 23 1 0
BITMAP
003c00
007c00
00fc00
00fc00
01fc00
01fc00
037c00
077c00
067c00
0e7c00
1c7c00
187c00
387c00
307c00
707c00
ffff80
ffff80
007c00
007c00
007c00
007c00
007c00
03ff00
ENDCHAR
STARTCHAR five
ENCODING 53
SWIDTH 560 0
DWIDTH 19 0
BBX 15 23 2 0
BITMAP
7ffc
7ffc
7ffc
7ff8
6000
6000
6000
6000
6000
67c0
5ff0
70fc
407c
003e
003e
003e
603e
e03e
f03c
f87c
7878
3ff0
0780
ENDCHAR
STARTCHAR six
ENCODING 54
SWIDTH 560 0
DWIDTH 19 0
BBX 17 23 1 0
BITMAP
01f000
0ffc00
1e3e00
3e1f00
3c0f00
7c0e00
7c0000
780000
f80000
f87800
f9fe00
fffe00
fe3f00
fc1f80
f80f80
f80f80
780f80
780f80
7c0f00
3c1f00
1e1e00
0ffc00
01e000
ENDCHAR
STARTCHAR seven
ENCODING 55
SWIDTH 560 0
DWIDTH 19 0
BBX 16 23 1 0
BITMAP
7fff
7fff
7fff
7ffe
c00e
c00e
401c
0018
0038
0030
0060
00e0
00e0
01c0
03c0
0380
0780
0780
0780
0f80
0f80
0f80
0700
ENDCHAR
STARTCHAR eight
ENCODING 56
SWIDTH 560 0
DWIDTH 19 0
BBX 17 23 1 0
BITMAP
03e000
0ff800
1e3e00
3e1e00
7c1f00
7c1f00
7c1f00
7c1f00
3e1e00
3e3c00
0ff800
3ffe00
7e3f00
7c1f00
f80f00
f80f80
f80f80
f80f80
780f00
7c1f00
3e3e00
1ffc00
07f000
ENDCHAR
STARTCHAR nine
ENCODING 57
SWIDTH 560 0
DWIDTH 19 0
BBX 16 23 1 0
BITMAP
0380
1ff0
3c78
7c3c
783e
f81e
f81e
f81f
f81f
fc1f
7c1f
7e3f
3fff
1fdf
071f
001e
001e
301e
783e
783c
7c78
3ff0
0780
ENDCHAR
STARTCHAR colon
ENCODING 58
SWIDTH 280 0
DWIDTH 9 0
BBX 6 17 2 0
BITMAP
30
78
fc
fc
78
78
00
00
00
00
00
78
78
fc
fc
78
30
ENDCHAR
STARTCHAR semicolon
ENCODING 59
SWIDTH 280 0
DWIDTH 9 0
BBX 7 22 1 -5
BITMAP
18
3c
3e
7e
3c
3c
00
00
00
00
30
78
7c
7c
7c
3c
38
38
30
60
e0
40
ENDCHAR
STARTCHAR less
ENCODING 60
SWIDTH 600 0
DWIDTH 20 0
BBX 16 17 2 0
BITMAP
0001
0007
003f
00fe
03f8
0fe0
7f00
fc00
e000
fc00
3f00
0fe0
03f8
007f
001f
0007
0001
ENDCHAR
STARTCHAR equal
ENCODING 61
SWIDTH 600 0
DWIDTH 20 0
BBX 16 10 2 3
BITMAP
ffff
ffff
ffff
0000
0000
0000
0000
ffff
ffff
ffff
ENDCHAR
STARTCHAR greater
ENCODING 62
SWIDTH 600 0
DWIDTH 20 0
BBX 16 17 2 0
BITMAP
8000
e000
fc00
7f00
1fc0
07f0
00fe
003f
0007
003f
00fc
07f0
1fc0
fe00
f800
e000
8000
ENDCHAR
STARTCHAR question
ENCODING 63
SWIDTH 456 0
DWIDTH 15 0
BBX 14 24 1 0
BITMAP
07c0
3ff0
7cf8
f8f8
f8fc
78fc
30fc
01f8
03f0
07c0
0f80
1f00
3f00
3f00
1ff0
07c0
0000
0000
0780
0f80
0fc0
0fc0
0f80
0300
ENDCHAR
STARTCHAR at
ENCODING 64
SWIDTH 833 0
DWIDTH 28 0
BBX 26 24 1 0
BITMAP
00078000
007ff000
01f03c00
07c01e00
0f800700
1e000700
1e03fb80
3c1ef180
783cf180
7878f1c0
7870e1c0
f0f1e1c0
f0f1e180
f1f3e380
f1e3c380
71e5c700
71e5c600
78f9fc00
7c60e000
3c000000
1f000000
0fc06000
01fff000
003f0000
ENDCHAR
STARTCHAR A
ENCODING 65
SWIDTH 644 0
DWIDTH 21 0
BBX 23 24 -1 0
BITMAP
003c00
007c00
007e00
007e00
00fe00
00fe00
00df00
019f00
019f00
019f80
030f80
030f80
030fc0
0707c0
07ffc0
07ffe0
0e07e0
0c03e0
0c03e0
1c03f0
1c01f0
1801f0
3801f8
ff0ffe
ENDCHAR
STARTCHAR B
ENCODING 66
SWIDTH 683 0
DWIDTH 23 0
BBX 21 24 1 0
BITMAP
fffc00
1fff80
1f0fc0
1f07c0
1f07e0
1f03e0
1f03e0
1f03c0
1f07c0
1f07c0
1f0f00
1ffe00
1fffc0
1f07e0
1f03f0
1f01f8
1f01f8
1f01f8
1f01f8
1f01f8
1f03f0
1f07e0
1fffc0
fffe00
ENDCHAR
STARTCHAR C
ENCODING 67
SWIDTH 689 0
DWIDTH 23 0
BBX 20 24 1 0
BITMAP
001f80
03ffe0
07c0f0
1f8070
3f0030
3e0030
7e0010
7e0010
7c0000
fc0000
fc0000
fc0000
fc0000
fc0000
fc0000
7c0000
7e0010
7e0010
3e0030
3f0030
1f8070
0fe0f0
03ffe0
003f00
ENDCHAR
STARTCHAR D
ENCODING 68
SWIDTH 777 0
DWIDTH 26 0
BBX 24 24 1 0
BITMAP
fffc00
1fffc0
1f03f0
1f01f8
1f00fc
1f007c
1f007e
1f003e
1f003e
1f003f
1f003f
1f003f
1f003f
1f003f
1f003f
1f003f
1f007e
1f007e
1f007e
1f00fc
1f01f8
1f03f0
1fffc0
fffe00
ENDCHAR
STARTCHAR E
ENCODING 69
SWIDTH 629 0
DWIDTH 21 0
BBX 19 24 1 0
BITMAP
ffffc0
1fffc0
1f03c0
1f01c0
1f00c0
1f00c0
1f0040
1f0000
1f0200
1f0600
1f0600
1ffe00
1ffe00
1f0600
1f0200
1f0200
1f0000
1f0020
1f0060
1f0060
1f00e0
1f81e0
1fffe0
ffffe0
ENDCHAR
STARTCHAR F
ENCODING 70
SWIDTH 593 0
DWIDTH 20 0
BBX 18 24 1 0
BITMAP
ffffc0
1fffc0
1f01c0
1f00c0
1f00c0
1f0040
1f0000
1f0000
1f0000
1f0100
1f0300
1f0300
1fff00
1fff00
1f0300
1f0100
1f0100
1f0000
1f0000
1f0000
1f0000
1f0000
1f0000
ffe000
ENDCHAR
STARTCHAR G
ENCODING 71
SWIDTH 726 0
DWIDTH 24 0
BBX 23 24 1 0
BITMAP
007f80
03ffe0
0fc0f0
1f8070
3f0070
3f0030
7e0030
7e0010
fc0000
fc0000
fc0000
fc0000
fc0000
fc0000
fc07fe
fc00f8
7c00f8
7e00f8
7e00f8
3f00f8
1f80f8
0fc0f8
03fff0
007f00
ENDCHAR
STARTCHAR H
ENCODING 72
SWIDTH 807 0
DWIDTH 27 0
BBX 25 24 1 0
BITMAP
ffe3ff80
1f007c00
1f007c00
1f007c00
1f007c00
1f007c00
1f007c00
1f007c00
1f007c00
1f007c00
1f007c00
1ffffc00
1ffffc00
1f007c00
1f007c00
1f007c00
1f007c00
1f007c00
1f007c00
1f007c00
1f007c00
1f007c00
1f007c00
ffe3ff80
ENDCHAR
STARTCHAR I
ENCODING 73
SWIDTH 384 0
DWIDTH 13 0
BBX 11 24 1 0
BITMAP
ffe0
1f00
1f00
1f00
1f00
1f00
1f00
1f00
1f00
1f00
1f00
1f00
1f00
1f00
1f00
1f00
1f00
1f00
1f00
1f00
1f00
1f00
1f00
ffe0
ENDCHAR
STARTCHAR J
ENCODING 74
SWIDTH 386 0
DWIDTH 13 0
BBX 12 27 0 -3
BITMAP
7ff0
0f80
0f80
0f80
0f80
0f80
0f80
0f80
0f80
0f80
0f80
0f80
0f80
0f80
0f80
0f80
0f80
0f80
0f80
0f80
0f80
0f00
1f00
1f00
3e00
fc00
8000
ENDCHAR
STARTCHAR K
ENCODING 75
SWIDTH 707 0
DWIDTH 24 0
BBX 23 24 1 0
BITMAP
ffe3fe
1f00f8
1f01e0
1f01c0
1f0380
1f0700
1f0e00
1f1c00
1f3800
1f3800
1f7800
1ffc00
1ffe00
1f7e00
1f7f00
1f3f80
1f3f80
1f1fc0
1f0fe0
1f0fe0
1f07f0
1f03f8
1f01fc
ffe03e
ENDCHAR
STARTCHAR L
ENCODING 76
SWIDTH 585 0
DWIDTH 20 0
BBX 18 24 1 0
BITMAP
ffe000
1f0000
1f0000
1f0000
1f0000
1f0000
1f0000
1f0000
1f0000
1f0000
1f0000
1f0000
1f0000
1f0000
1f0000
1f0000
1f0000
1f0040
1f00c0
1f00c0
1f01c0
1f83c0
1fffc0
ffffc0
ENDCHAR
STARTCHAR M
ENCODING 77
SWIDTH 918 0
DWIDTH 31 0
BBX 30 24 0 0
BITMAP
ff8007fc
1fc007e0
1fc00fe0
1fe00fe0
1be01be0
1be01be0
1bf01be0
19f033e0
19f033e0
19f833e0
18f863e0
18fc63e0
18fc63e0
187cc3e0
187ec3e0
183fc3e0
183f83e0
183f83e0
181f03e0
181f03e0
181f03e0
180e03e0
3c0e03e0
7f061ffc
ENDCHAR
STARTCHAR N
ENCODING 78
SWIDTH 739 0
DWIDTH 25 0
BBX 22 24 1 0
BITMAP
ff01fc
1f8078
1f8030
1fc030
1fe030
1be030
1bf030
19f030
18f830
18fc30
187c30
187e30
183e30
183f30
181fb0
180fb0
180ff0
1807f0
1807f0
1803f0
1801f0
1801f0
3c00f0
7f00f0
ENDCHAR
STARTCHAR O
ENCODING 79
SWIDTH 768 0
DWIDTH 26 0
BBX 23 24 1 0
BITMAP
007c00
03ff80
0fc7e0
1f01f0
3e00f8
3e00f8
7e00fc
7e00fc
7c007c
fc007e
fc007e
fc007e
fc007e
fc007e
fc007e
7c007c
7c007c
7e00fc
3e00f8
3e00f8
1f01f0
0fc7e0
03ff80
007c00
ENDCHAR
STARTCHAR P
ENCODING 80
SWIDTH 650 0
DWIDTH 22 0
BBX 20 24 1 0
BITMAP
fffc00
1fff80
1f0fc0
1f07e0
1f03e0
1f03e0
1f03f0
1f03f0
1f03f0
1f03e0
1f07e0
1f07c0
1f0fc0
1fff00
1ff800
1f0000
1f0000
1f0000
1f0000
1f0000
1f0000
1f0000
1f0000
ffe000
ENDCHAR
STARTCHAR Q
ENCODING 81
SWIDTH 768 0
DWIDTH 26 0
BBX 23 31 1 -7
BITMAP
007c00
03ff80
0fc7e0
1f01f0
3f01f8
3e00f8
7e00fc
7e00fc
7c007c
fc007e
fc007e
fc007e
fc007e
fc007e
fc007e
fc007e
7c007c
7c007c
7e00fc
3e00f8
3f01f8
1f01f0
07c7e0
01ff00
003f00
003f80
001f80
000fc0
000ff0
0003fc
000070
ENDCHAR
STARTCHAR R
ENCODING 82
SWIDTH 684 0
DWIDTH 23 0
BBX 22 24 1 0
BITMAP
fffc00
1fff80
1f0fc0
1f07e0
1f03f0
1f03f0
1f03f0
1f03f0
1f03e0
1f07e0
1f07c0
1f0f80
1ffe00
1fff00
1f0f80
1f0fc0
1f07c0
1f07c0
1f07e0
1f07e0
1f03f0
1f03f0
1f03f8
ffe07c
ENDCHAR
STARTCHAR S
ENCODING 83
SWIDTH 561 0
DWIDTH 19 0
BBX 16 24 2 0
BITMAP
03e0
1ff8
3e3c
7c1c
780c
f80c
f804
fc00
ff00
7fc0
7fe0
3ff8
0ffc
03fe
00fe
007f
803f
c01f
c01f
e01e
f03e
f87c
3ff8
07c0
ENDCHAR
STARTCHAR T
ENCODING 84
SWIDTH 624 0
DWIDTH 21 0
BBX 19 24 1 0
BITMAP
ffffe0
ffffe0
e1f0e0
c1f060
c1f060
c1f060
81f020
01f000
01f000
01f000
01f000
01f000
01f000
01f000
01f000
01f000
01f000
01f000
01f000
01f000
01f000
01f000
01f000
0ffe00
ENDCHAR
STARTCHAR U
ENCODING 85
SWIDTH 786 0
DWIDTH 26 0
BBX 23 24 2 0
BITMAP
ffc7fe
3e00f8
3e00f8
3e00f8
3e00f8
3e00f8
3e00f8
3e00f8
3e00f8
3e00f8
3e00f8
3e00f8
3e00f8
3e00f8
3e00f8
3e00f8
3e00f8
3e00f8
3e00f0
1f01f0
1f01f0
0f83e0
07ff80
00fc00
ENDCHAR
STARTCHAR V
ENCODING 86
SWIDTH 645 0
DWIDTH 22 0
BBX 23 24 0 0
BITMAP
ffc1fe
3f0038
3f0030
1f0070
1f8070
1f8060
0f8060
0f80e0
0fc0c0
07c0c0
07c0c0
07e180
03e180
03e180
03e300
01f300
01f300
01f600
00fe00
00fe00
00fc00
00fc00
007c00
007c00
ENDCHAR
STARTCHAR W
ENCODING 87
SWIDTH 933 0
DWIDTH 31 0
BBX 32 24 0 0
BITMAP
ff8000ff
3e01e01c
3e01e01c
3e01e018
1e03f018
1f03f038
1f03f038
1f03f030
0f06f830
0f86f830
0f86f870
0f867860
0f8c7c60
07cc7c60
07cc7c60
07cc3cc0
07c83ec0
03f83ec0
03f83ec0
03f81f80
03f01f80
01f01f80
01f01f00
01f00f00
ENDCHAR
STARTCHAR X
ENCODING 88
SWIDTH 634 0
DWIDTH 21 0
BBX 23 24 -1 0
BITMAP
7fe3fc
1f80e0
0f80c0
0fc1c0
07c380
07e300
03f700
03f600
01fc00
00fc00
00fc00
007c00
007e00
007e00
00ff00
019f00
019f80
030fc0
030fc0
0607e0
0e07e0
0c03f0
3c03f8
ff8ffe
ENDCHAR
STARTCHAR Y
ENCODING 89
SWIDTH 617 0
DWIDTH 21 0
BBX 22 24 0 0
BITMAP
ffc3fc
3f00f0
1f00e0
1f80c0
0f81c0
0f8180
0fc380
07c300
07c700
03e600
03e600
01fc00
01fc00
01f800
00f800
00f800
00f800
00f800
00f800
00f800
00f800
00f800
00f800
07ff00
ENDCHAR
STARTCHAR Z
ENCODING 90
SWIDTH 614 0
DWIDTH 20 0
BBX 20 24 0 0
BITMAP
3ffff0
3ffff0
3c07e0
300fc0
300fc0
201f80
203f00
003f00
007e00
007c00
00fc00
01f800
01f000
03f000
07e000
07e000
0fc000
0f8030
1f8030
3f0070
3e0070
7e01f0
fffff0
fffff0
ENDCHAR
STARTCHAR bracketleft
ENCODING 91
SWIDTH 335 0
DWIDTH 11 0
BBX 6 28 4 -4
BITMAP
fc
e0
e0
e0
e0
e0
e0
e0
e0
e0
e0
e0
e0
e0
e0
e0
e0
e0
e0
e0
e0
e0
e0
e0
e0
e0
e0
fc
ENDCHAR
STARTCHAR backslash
ENCODING 92
SWIDTH 379 0
DWIDTH 13 0
BBX 10 24 1 0
BITMAP
e000
f000
7000
7000
7000
3800
3800
3800
3c00
1c00
1c00
1c00
0e00
0e00
0e00
0f00
0700
0700
0700
0380
0380
0380
03c0
01c0
ENDCHAR
STARTCHAR bracketright
ENCODING 93
SWIDTH 335 0
DWIDTH 11 0
BBX 6 28 1 -4
BITMAP
fc
1c
1c
1c
1c
1c
1c
1c
1c
1c
1c
1c
1c
1c
1c
1c
1c
1c
1c
1c
1c
1c
1c
1c
1c
1c
1c
fc
ENDCHAR
STARTCHAR asciicircum
ENCODING 94
SWIDTH 600 0
DWIDTH 20 0
BBX 16 15 2 8
BITMAP
03c0
03c0
07e0
07e0
07e0
0e70
0e70
1e78
1c38
3c3c
381c
381c
781e
700e
f00f
ENDCHAR
STARTCHAR underscore
ENCODING 95
SWIDTH 500 0
DWIDTH 17 0
BBX 17 2 0 -4
BITMAP
ffff80
ffff80
ENDCHAR
STARTCHAR grave
ENCODING 96
SWIDTH 430 0
DWIDTH 14 0
BBX 9 8 1 17
BITMAP
4000
f000
f800
7c00
3e00
0f00
0380
0080
ENDCHAR
STARTCHAR a
ENCODING 97
SWIDTH 544 0
DWIDTH 18 0
BBX 18 17 1 0
BITMAP
07e000
3ffc00
7c7c00
7c3e00
f83e00
703e00
00fe00
07fe00
1e3e00
7c3e00
783e00
f83e00
f83e00
7c7e00
7fff00
7f9fc0
1c0c00
ENDCHAR
STARTCHAR b
ENCODING 98
SWIDTH 605 0
DWIDTH 20 0
BBX 19 25 0 0
BITMAP
0e0000
fe0000
7e0000
3e0000
3e0000
3e0000
3e0000
3e0000
3e1e00
3e7f00
3fff80
3f0fc0
3e07c0
3e03e0
3e03e0
3e03e0
3e03e0
3e03e0
3e03e0
3e03c0
3e07c0
3e07c0
3f0f80
3fff00
11f800
ENDCHAR
STARTCHAR c
ENCODING 99
SWIDTH 494 0
DWIDTH 16 0
BBX 15 17 1 0
BITMAP
03c0
0ff8
3c7c
3c3c
7c3c
7818
f800
f800
f800
f800
f800
fc06
7c0c
7e0c
3ff8
1ff0
0380
ENDCHAR
STARTCHAR d
ENCODING 100
SWIDTH 605 0
DWIDTH 20 0
BBX 19 25 1 0
BITMAP
000380
003f80
001f80
000f80
000f80
000f80
000f80
000f80
01cf80
0fff80
3e1f80
3c0f80
7c0f80
780f80
f80f80
f80f80
f80f80
f80f80
f80f80
f80f80
7c0f80
7c0f80
3e1f80
1fef80
070fe0
ENDCHAR
STARTCHAR e
ENCODING 101
SWIDTH 519 0
DWIDTH 17 0
BBX 16 17 1 0
BITMAP
03c0
0ff8
3e3c
3c1e
781e
781f
f81f
ffff
ffff
f800
f800
fc00
7c03
7e06
3ffc
1ff8
03e0
ENDCHAR
STARTCHAR f
ENCODING 102
SWIDTH 342 0
DWIDTH 11 0
BBX 13 25 1 0
BITMAP
03c0
0ff0
1cf0
1c78
3c70
3e00
3e00
3e00
ffc0
ffc0
3e00
3e00
3e00
3e00
3e00
3e00
3e00
3e00
3e00
3e00
3e00
3e00
3e00
3e00
ffc0
ENDCHAR
STARTCHAR g
ENCODING 103
SWIDTH 533 0
DWIDTH 18 0
BBX 17 25 1 -8
BITMAP
078180
1fff80
7c7f00
7c3c00
f83e00
f83e00
f83e00
7c3c00
7c7c00
1ff800
0fc000
380000
380000
7ff800
7ffe00
3fff00
1fff80
3c0f80
780780
f80780
f80700
7c0700
7e1e00
3ffc00
07e000
ENDCHAR
STARTCHAR h
ENCODING 104
SWIDTH 631 0
DWIDTH 21 0
BBX 20 25 1 0
BITMAP
0e0000
fe0000
7e0000
3e0000
3e0000
3e0000
3e0000
3e0000
3e1e00
3e7f80
3fff80
3f0fc0
3e07c0
3e07c0
3e07c0
3e07c0
3e07c0
3e07c0
3e07c0
3e07c0
3e07c0
3e07c0
3e07c0
3e07c0
ff9ff0
ENDCHAR
STARTCHAR i
ENCODING 105
SWIDTH 316 0
DWIDTH 11 0
BBX 9 24 1 0
BITMAP
1800
3e00
7e00
3e00
3e00
1800
0000
0e00
fe00
7e00
3e00
3e00
3e00
3e00
3e00
3e00
3e00
3e00
3e00
3e00
3e00
3e00
3e00
ff80
ENDCHAR
STARTCHAR j
ENCODING 106
SWIDTH 316 0
DWIDTH 11 0
BBX 10 32 -1 -8
BITMAP
0300
0780
0fc0
0fc0
0780
0300
0000
0380
3f80
1f80
0f80
0f80
0f80
0f80
0f80
0f80
0f80
0f80
0f80
0f80
0f80
0f80
0f80
0f80
0f80
0f80
0f80
0f00
1f00
1f00
7e00
e000
ENDCHAR
STARTCHAR k
ENCODING 107
SWIDTH 582 0
DWIDTH 19 0
BBX 19 25 1 0
BITMAP
0e0000
fe0000
7e0000
3e0000
3e0000
3e0000
3e0000
3e0000
3e0fc0
3e1f80
3e3e00
3e3c00
3e7800
3e6000
3ee000
3ff000
3ff000
3ff800
3efc00
3e7c00
3e7e00
3e3f00
3e3f80
3e1fc0
ff87e0
ENDCHAR
STARTCHAR l
ENCODING 108
SWIDTH 309 0
DWIDTH 10 0
BBX 9 25 1 0
BITMAP
0e00
fe00
7e00
3e00
3e00
3e00
3e00
3e00
3e00
3e00
3e00
3e00
3e00
3e00
3e00
3e00
3e00
3e00
3e00
3e00
3e00
3e00
3e00
3e00
ff80
ENDCHAR
STARTCHAR m
ENCODING 109
SWIDTH 948 0
DWIDTH 32 0
BBX 31 17 1 0
BITMAP
0e0c01c0
fe7f0ff0
7fffbff0
3f0fe1f8
3f07e0f8
3e07c0f8
3e07c0f8
3e07c0f8
3e07c0f8
3e07c0f8
3e07c0f8
3e07c0f8
3e07c0f8
3e07c0f8
3e07c0f8
3e07c0f8
ff9ff3fe
ENDCHAR
STARTCHAR n
ENCODING 110
SWIDTH 638 0
DWIDTH 21 0
BBX 20 17 1 0
BITMAP
0e0e00
fe7f80
7fff80
3f0fc0
3e07c0
3e07c0
3e07c0
3e07c0
3e07c0
3e07c0
3e07c0
3e07c0
3e07c0
3e07c0
3e07c0
3e07c0
ff9ff0
ENDCHAR
STARTCHAR o
ENCODING 111
SWIDTH 585 0
DWIDTH 20 0
BBX 17 17 1 0
BITMAP
03e000
1ffc00
3e3e00
7c1f00
7c1f00
f80f80
f80f80
f80f80
f80f80
f80f80
f80f80
f80f80
7c1f00
7c1f00
3e3e00
1ffc00
03e000
ENDCHAR
STARTCHAR p
ENCODING 112
SWIDTH 615 0
DWIDTH 21 0
BBX 18 25 1 -8
BITMAP
0c1c00
fefe00
7fff00
3f0f80
3e0f80
3e07c0
3e07c0
3e07c0
3e07c0
3e07c0
3e07c0
3e0780
3e0f80
3e0f80
3f1f00
3ffe00
3ff000
3e0000
3e0000
3e0000
3e0000
3e0000
3e0000
3e0000
ffc000
ENDCHAR
STARTCHAR q
ENCODING 113
SWIDTH 597 0
DWIDTH 20 0
BBX 19 25 1 -8
BITMAP
01f180
0fff80
3e1f80
3c0f80
7c0f80
780f80
f80f80
f80f80
f80f80
f80f80
f80f80
fc0f80
7c0f80
7e1f80
3fff80
1fef80
078f80
000f80
000f80
000f80
000f80
000f80
000f80
000f80
007fe0
ENDCHAR
STARTCHAR r
ENCODING 114
SWIDTH 440 0
DWIDTH 15 0
BBX 14 17 1 0
BITMAP
1e38
fef8
7ffc
3ff8
3e30
3e00
3e00
3e00
3e00
3e00
3e00
3e00
3e00
3e00
3e00
3e00
ffc0
ENDCHAR
STARTCHAR s
ENCODING 115
SWIDTH 446 0
DWIDTH 15 0
BBX 13 17 1 0
BITMAP
0fc0
3ff0
78f0
7830
f830
fc10
ff00
7fc0
7ff0
1ff0
87f8
c1f8
c0f8
e0f0
f0f0
7fe0
0f80
ENDCHAR
STARTCHAR t
ENCODING 116
SWIDTH 370 0
DWIDTH 12 0
BBX 11 21 1 0
BITMAP
0600
0e00
1e00
1e00
ffc0
ffc0
3e00
3e00
3e00
3e00
3e00
3e00
3e00
3e00
3e00
3e00
3e00
3f00
1fe0
1fc0
0700
ENDCHAR
STARTCHAR u
ENCODING 117
SWIDTH 629 0
DWIDTH 21 0
BBX 19 17 1 0
BITMAP
0e0380
fe3f80
7e0f80
3e0f80
3e0f80
3e0f80
3e0f80
3e0f80
3e0f80
3e0f80
3e0f80
3e0f80
3e0f80
3f1f80
1fff80
1fe780
070fe0
ENDCHAR
STARTCHAR v
ENCODING 118
SWIDTH 520 0
DWIDTH 17 0
BBX 18 17 0 0
BITMAP
ff9fc0
3e0700
3e0700
3e0600
1f0600
1f0e00
1f0c00
0f8c00
0f9c00
0f9800
079800
07d800
07f000
03f000
03e000
01e000
01e000
ENDCHAR
STARTCHAR w
ENCODING 119
SWIDTH 774 0
DWIDTH 26 0
BBX 27 17 0 0
BITMAP
ff870fe0
3e0f8380
3e0f8380
3e0f8300
1f0fc300
1f1fc700
1f1fc600
0f1bc600
0f9be600
0fb3ec00
07b1ec00
07f1fc00
07e1fc00
07e0f800
03e0f800
03e0f800
03c0f000
ENDCHAR
STARTCHAR x
ENCODING 120
SWIDTH 522 0
DWIDTH 17 0
BBX 18 17 0 0
BITMAP
ffbf80
3f1e00
1f1c00
1fb800
0fb000
07f000
07e000
03e000
01e000
01f000
03f000
07f800
067c00
0c7e00
1c3e00
383f00
fe7fc0
ENDCHAR
STARTCHAR y
ENCODING 121
SWIDTH 524 0
DWIDTH 17 0
BBX 20 25 -1 -8
BITMAP
ffc7f0
3f01c0
1f01c0
1f0180
1f8380
0f8300
0fc300
07c700
07c600
07e600
03ec00
03fc00
01fc00
01f800
01f800
00f800
00f000
00f000
00e000
006000
0cc000
1fc000
1f8000
1f8000
0e0000
ENDCHAR
STARTCHAR z
ENCODING 122
SWIDTH 483 0
DWIDTH 16 0
BBX 15 17 1 0
BITMAP
7ffe
7ffe
70fc
60f8
41f8
43f0
03e0
07e0
0fc0
0f80
1f80
1f02
3e06
7e06
7c0e
fffe
fffe
ENDCHAR
STARTCHAR braceleft
ENCODING 123
SWIDTH 365 0
DWIDTH 12 0
BBX 9 28 2 -4
BITMAP
0780
0e00
1c00
1c00
1c00
1c00
1c00
1e00
0e00
0e00
0e00
0e00
0c00
1000
fc00
1e00
0e00
0e00
0e00
0e00
1e00
1c00
1c00
1c00
1c00
1c00
0e00
0780
ENDCHAR
STARTCHAR bar
ENCODING 124
SWIDTH 284 0
DWIDTH 9 0
BBX 3 24 3 0
BITMAP
e0
e0
e0
e0
e0
e0
e0
e0
e0
e0
e0
e0
e0
e0
e0
e0
e0
e0
e0
e0
e0
e0
e0
e0
ENDCHAR
STARTCHAR braceright
ENCODING 125
SWIDTH 365 0
DWIDTH 12 0
BBX 9 28 1 -4
BITMAP
f000
3800
1c00
1c00
1c00
1c00
1c00
1c00
1c00
1c00
1c00
1c00
1c00
0e00
0380
0e00
1c00
1c00
1c00
1c00
1c00
1c00
1c00
1c00
1c00
1c00
3800
f000
ENDCHAR
STARTCHAR asciitilde
ENCODING 126
SWIDTH 600 0
DWIDTH 20 0
BBX 17 6 2 5
BITMAP
000100
1f8380
3fff00
7ffe00
e07c00
400000
ENDCHAR
STARTCHAR nobreakspace
ENCODING 160
SWIDTH 210 0
DWIDTH 7 0
BBX 0 0 0 0
BITMAP
ENDCHAR
STARTCHAR Aogonek
ENCODING 161
SWIDTH 644 0
DWIDTH 21 0
BBX 23 33 -1 -9
BITMAP
003c00
007c00
007e00
007e00
00fe00
00fe00
00df00
019f00
019f00
019f80
030f80
030f80
030fc0
0707c0
07ffc0
07ffe0
0e07e0
0c03e0
0c03e0
1c03f0
1c01f0
1801f0
3801f8
ff0ffe
000400
001800
003000
006000
006000
00e000
00f000
007e00
003800
ENDCHAR
STARTCHAR breve
ENCODING 162
SWIDTH 430 0
DWIDTH 14 0
BBX 10 5 2 18
BITMAP
8040
c0c0
7f80
7f80
1e00
ENDCHAR
STARTCHAR Lstroke
ENCODING 163
SWIDTH 591 0
DWIDTH 20 0
BBX 18 24 1 0
BITMAP
ffe000
1f0000
1f0000
1f0000
1f0000
1f0000
1f0800
1f3800
1f7000
1fe000
1f8000
1f0000
1f0000
1f0000
7f0000
ff0000
df0000
9f0040
1f00c0
1f00c0
1f01c0
1f83c0
1fffc0
ffffc0
ENDCHAR
STARTCHAR currency
ENCODING 164
SWIDTH 560 0
DWIDTH 19 0
BBX 17 18 1 2
BITMAP
400100
e3e380
7fff00
7fff00
3c1e00
380e00
780f00
700700
700700
700700
700700
780f00
380e00
3c1e00
7fff00
7fff00
e3e380
400100
ENDCHAR
STARTCHAR Lcaron
ENCODING 165
SWIDTH 585 0
DWIDTH 20 0
BBX 18 27 1 0
BITMAP
000300
000780
000780
ffe7c0
1f03c0
1f0380
1f0380
1f0300
1f0600
1f0c00
1f0400
1f0000
1f0000
1f0000
1f0000
1f0000
1f0000
1f0000
1f0000
1f0000
1f0040
1f00c0
1f00c0
1f01c0
1f83c0
1fffc0
ffffc0
ENDCHAR
STARTCHAR Sacute
ENCODING 166
SWIDTH 561 0
DWIDTH 19 0
BBX 16 33 2 0
BITMAP
0002
000f
001f
003e
007c
00f0
01c0
0100
0000
03e0
1ff8
3e3c
7c1c
780c
f80c
f804
fc00
ff00
7fc0
7fe0
3ff8
0ffc
03fe
00fe
007f
803f
c01f
c01f
e01e
f03e
f87c
3ff8
07c0
ENDCHAR
STARTCHAR section
ENCODING 167
SWIDTH 566 0
DWIDTH 19 0
BBX 17 28 1 -4
BITMAP
01e000
07fc00
0c7c00
1c3e00
1c0c00
1e0000
3f8000
6fc000
47f000
43fc00
c1fe00
e07f00
e03f00
f80f80
7e0780
7f0380
3fc380
1fe180
07f100
03fb00
00fe00
007c00
083c00
1c1c00
3e1c00
1f1800
0ff000
01c000
ENDCHAR
STARTCHAR diaeresis
ENCODING 168
SWIDTH 430 0
DWIDTH 14 0
BBX 13 5 1 19
BITMAP
3060
f8f8
f8f8
f8f8
3060
ENDCHAR
STARTCHAR Scaron
ENCODING 169
SWIDTH 561 0
DWIDTH 19 0
BBX 16 33 2 0
BITMAP
2004
300c
1c38
0e70
07e0
03c0
03c0
0100
0000
03e0
1ff8
3e3c
7c1c
780c
f80c
f804
fc00
ff00
7fc0
7fe0
3ff8
0ffc
03fe
00fe
007f
803f
c01f
c01f
e01e
f03e
f87c
3ff8
07c0
ENDCHAR
STARTCHAR Scedilla
ENCODING 170
SWIDTH 561 0
DWIDTH 19 0
BBX 16 32 2 -8
BITMAP
03e0
1ff8
3e3c
7c1c
780c
f80c
f804
fc00
ff00
7fc0
7fe0
3ff8
0ffc
03fe
00fe
007f
803f
c01f
c01f
e01e
f03e
f87c
3ff8
07c0
0380
0300
0780
07c0
03e0
01e0
03c0
0f80
ENDCHAR
STARTCHAR Tcaron
ENCODING 171
SWIDTH 624 0
DWIDTH 21 0
BBX 19 33 1 0
BITMAP
080100
0c0300
070e00
039c00
01f800
00f000
00f000
004000
000000
ffffe0
ffffe0
e1f0e0
c1f060
c1f060
c1f060
81f020
01f000
01f000
01f000
01f000
01f000
01f000
01f000
01f000
01f000
01f000
01f000
01f000
01f000
01f000
01f000
01f000
0ffe00
ENDCHAR
STARTCHAR Zacute
ENCODING 172
SWIDTH 614 0
DWIDTH 20 0
BBX 20 33 0 0
BITMAP
000040
0001e0
0003e0
0007c0
000f80
001e00
003800
002000
000000
3ffff0
3ffff0
3c07e0
300fc0
300fc0
201f80
203f00
003f00
007e00
007c00
00fc00
01f800
01f000
03f000
07e000
07e000
0fc000
0f8030
1f8030
3f0070
3e0070
7e01f0
fffff0
fffff0
ENDCHAR
STARTCHAR hyphen
ENCODING 173
SWIDTH 392 0
DWIDTH 13 0
BBX 9 3 2 7
BITMAP
ff80
ff80
ff80
ENDCHAR
STARTCHAR Zcaron
ENCODING 174
SWIDTH 614 0
DWIDTH 20 0
BBX 20 33 0 0
BITMAP
040080
060180
038700
01ce00
00fc00
007800
007800
002000
000000
3ffff0
3ffff0
3c07e0
300fc0
300fc0
201f80
203f00
003f00
007e00
007c00
00fc00
01f800
01f000
03f000
07e000
07e000
0fc000
0f8030
1f8030
3f0070
3e0070
7e01f0
fffff0
fffff0
ENDCHAR
STARTCHAR Zabovedot
ENCODING 175
SWIDTH 614 0
DWIDTH 20 0
BBX 20 30 0 0
BITMAP
007000
00f800
00f800
00f800
007000
000000
3ffff0
3ffff0
3c07e0
300fc0
300fc0
201f80
203f00
003f00
007e00
007c00
00fc00
01f800
01f000
03f000
07e000
07e000
0fc000
0f8030
1f8030
3f0070
3e0070
7e01f0
fffff0
fffff0
ENDCHAR
STARTCHAR degree
ENCODING 176
SWIDTH 396 0
DWIDTH 13 0
BBX 11 11 1 12
BITMAP
1f00
3f80
71c0
60c0
e0e0
e0e0
e0e0
60c0
71c0
3f80
1f00
ENDCHAR
STARTCHAR aogonek
ENCODING 177
SWIDTH 544 0
DWIDTH 18 0
BBX 18 26 1 -9
BITMAP
07e000
3ffc00
7c7c00
7c3e00
f83e00
703e00
00fe00
07fe00
1e3e00
7c3e00
783e00
f83e00
f83e00
7c7e00
7fff00
7f9fc0
1c0c00
002000
00c000
018000
030000
030000
070000
078000
03f000
01c000
ENDCHAR
STARTCHAR ogonek
ENCODING 178
SWIDTH 430 0
DWIDTH 14 0
BBX 7 9 4 -8
BITMAP
04
18
30
60
60
e0
f0
7e
38
ENDCHAR
STARTCHAR lstroke
ENCODING 179
SWIDTH 321 0
DWIDTH 11 0
BBX 11 25 0 0
BITMAP
0700
7f00
3f00
1f00
1f00
1f00
1f00
1f00
1f20
1f60
1fc0
1f80
1f00
1f00
3f00
7f00
7f00
9f00
1f00
1f00
1f00
1f00
1f00
1f00
7fc0
ENDCHAR
STARTCHAR acute
ENCODING 180
SWIDTH 430 0
DWIDTH 14 0
BBX 9 8 4 17
BITMAP
0100
0780
0f80
1f00
3e00
7800
e000
8000
ENDCHAR
STARTCHAR lcaron
ENCODING 181
SWIDTH 450 0
DWIDTH 15 0
BBX 14 28 1 0
BITMAP
0030
0078
0078
0e7c
fe3c
7e38
3e38
3e30
3e60
3ec0
3e40
3e00
3e00
3e00
3e00
3e00
3e00
3e00
3e00
3e00
3e00
3e00
3e00
3e00
3e00
3e00
3e00
ff80
ENDCHAR
STARTCHAR sacute
ENCODING 182
SWIDTH 446 0
DWIDTH 15 0
BBX 15 26 1 0
BITMAP
0004
001e
003e
007c
00f8
01e0
0380
0200
0000
0fc0
3ff0
78f0
7830
f830
fc10
ff00
7fc0
7ff0
1ff0
87f8
c1f8
c0f8
e0f0
f0f0
7fe0
0f80
ENDCHAR
STARTCHAR caron
ENCODING 183
SWIDTH 430 0
DWIDTH 14 0
BBX 12 8 1 17
BITMAP
8010
c030
70e0
39c0
1f80
0f00
0f00
0400
ENDCHAR
STARTCHAR cedilla
ENCODING 184
SWIDTH 430 0
DWIDTH 14 0
BBX 7 8 4 -8
BITMAP
38
30
78
7c
3e
1e
3c
f8
ENDCHAR
STARTCHAR scaron
ENCODING 185
SWIDTH 446 0
DWIDTH 15 0
BBX 13 26 1 0
BITMAP
4008
6018
3870
1ce0
0fc0
0780
0780
0200
0000
0fc0
3ff0
78f0
7830
f830
fc10
ff00
7fc0
7ff0
1ff0
87f8
c1f8
c0f8
e0f0
f0f0
7fe0
0f80
ENDCHAR
STARTCHAR scedilla
ENCODING 186
SWIDTH 446 0
DWIDTH 15 0
BBX 13 25 1 -8
BITMAP
0fc0
3ff0
78f0
7830
f830
fc10
ff00
7fc0
7ff0
1ff0
87f8
c1f8
c0f8
e0f0
f0f0
7fe0
0f80
0700
0600
0f00
0f80
07c0
03c0
0780
1f00
ENDCHAR
STARTCHAR tcaron
ENCODING 187
SWIDTH 450 0
DWIDTH 15 0
BBX 14 29 1 0
BITMAP
0030
0078
0078
007c
003c
0038
0038
0030
0660
0ec0
1e40
1e00
ffc0
ffc0
3e00
3e00
3e00
3e00
3e00
3e00
3e00
3e00
3e00
3e00
3e00
3f00
1fe0
1fc0
0700
ENDCHAR
STARTCHAR zacute
ENCODING 188
SWIDTH 483 0
DWIDTH 16 0
BBX 16 26 1 0
BITMAP
0002
000f
001f
003e
007c
00f0
01c0
0100
0000
7ffe
7ffe
70fc
60f8
41f8
43f0
03e0
07e0
0fc0
0f80
1f80
1f02
3e06
7e06
7c0e
fffe
fffe
ENDCHAR
STARTCHAR doubleacute
ENCODING 189
SWIDTH 430 0
DWIDTH 14 0
BBX 13 8 2 17
BITMAP
1830
3c78
3c70
38f0
70e0
60c0
c180
4100
ENDCHAR
STARTCHAR zcaron
ENCODING 190
SWIDTH 483 0
DWIDTH 16 0
BBX 15 26 1 0
BITMAP
2004
300c
1c38
0e70
07e0
03c0
03c0
0100
0000
7ffe
7ffe
70fc
60f8
41f8
43f0
03e0
07e0
0fc0
0f80
1f80
1f02
3e06
7e06
7c0e
fffe
fffe
ENDCHAR
STARTCHAR zabovedot
ENCODING 191
SWIDTH 483 0
DWIDTH 16 0
BBX 15 23 1 0
BITMAP
0380
07c0
07c0
07c0
0380
0000
7ffe
7ffe
70fc
60f8
41f8
43f0
03e0
07e0
0fc0
0f80
1f80
1f02
3e06
7e06
7c0e
fffe
fffe
ENDCHAR
STARTCHAR Racute
ENCODING 192
SWIDTH 684 0
DWIDTH 23 0
BBX 22 33 1 0
BITMAP
000100
000780
000f80
001f00
003e00
007800
00e000
008000
000000
fffc00
1fff80
1f0fc0
1f07e0
1f03f0
1f03f0
1f03f0
1f03f0
1f03e0
1f07e0
1f07c0
1f0f80
1ffe00
1fff00
1f0f80
1f0fc0
1f07c0
1f07c0
1f07e0
1f07e0
1f03f0
1f03f0
1f03f8
ffe07c
ENDCHAR
STARTCHAR Aacute
ENCODING 193
SWIDTH 644 0
DWIDTH 21 0
BBX 23 31 -1 0
BITMAP
000180
000780
000fc0
003f80
007c00
00e000
000000
003c00
007c00
007e00
007e00
00fe00
00fe00
00df00
019f00
019f00
019f80
030f80
030f80
030fc0
0707c0
07ffc0
07ffe0
0e07e0
0c03e0
0c03e0
1c03f0
1c01f0
1801f0
3801f8
ff0ffe
ENDCHAR
STARTCHAR Acircumflex
ENCODING 194
SWIDTH 644 0
DWIDTH 21 0
BBX 23 30 -1 0
BITMAP
001000
003c00
00fe00
01ff00
0383c0
000000
003c00
007c00
007e00
007e00
00fe00
00fe00
00df00
019f00
019f00
019f80
030f80
030f80
030fc0
0707c0
07ffc0
07ffe0
0e07e0
0c03e0
0c03e0
1c03f0
1c01f0
1801f0
3801f8
ff0ffe
ENDCHAR
STARTCHAR Abreve
ENCODING 195
SWIDTH 644 0
DWIDTH 21 0
BBX 23 30 -1 0
BITMAP
010080
018180
00ff00
00ff00
003c00
000000
003c00
007c00
007e00
007e00
00fe00
00fe00
00df00
019f00
019f00
019f80
030f80
030f80
030fc0
0707c0
07ffc0
07ffe0
0e07e0
0c03e0
0c03e0
1c03f0
1c01f0
1801f0
3801f8
ff0ffe
ENDCHAR
STARTCHAR Adiaeresis
ENCODING 196
SWIDTH 644 0
DWIDTH 21 0
BBX 23 29 -1 0
BITMAP
038380
07c7c0
07c7c0
07c7c0
038380
003c00
007c00
007e00
007e00
00fe00
00fe00
00df00
019f00
019f00
019f80
030f80
030f80
030fc0
0707c0
07ffc0
07ffe0
0e07e0
0c03e0
0c03e0
1c03f0
1c01f0
1801f0
3801f8
ff07fe
ENDCHAR
STARTCHAR Lacute
ENCODING 197
SWIDTH 585 0
DWIDTH 20 0
BBX 18 33 1 0
BITMAP
000800
003c00
007c00
00f800
01f000
03c000
070000
040000
000000
ffe000
1f0000
1f0000
1f0000
1f0000
1f0000
1f0000
1f0000
1f0000
1f0000
1f0000
1f0000
1f0000
1f0000
1f0000
1f0000
1f0000
1f0040
1f00c0
1f00c0
1f01c0
1f83c0
1fffc0
ffffc0
ENDCHAR
STARTCHAR Cacute
ENCODING 198
SWIDTH 689 0
DWIDTH 23 0
BBX 21 33 1 0
BITMAP
000010
000078
0000f8
0001f0
0003e0
000780
000e00
000800
000000
001f80
03ffe0
07c0f0
1f8070
3f0030
3e0030
7e0010
7e0010
7c0000
fc0000
fc0000
fc0000
fc0000
fc0000
fc0000
7c0000
7e0010
7e0010
3e0030
3f0030
1f8070
0fe0f0
03ffe0
003f00
ENDCHAR
STARTCHAR Ccedilla
ENCODING 199
SWIDTH 689 0
DWIDTH 23 0
BBX 20 32 1 -8
BITMAP
001f80
03ffe0
0fc0f0
1f8070
3f0030
3e0030
7e0010
7e0010
7c0000
fc0000
fc0000
fc0000
fc0000
fc0000
fc0000
7c0000
7e0010
7e0010
3e0030
3f0030
1f8070
0fe0f0
03ffe0
003f00
001800
001800
003e00
003e00
001f00
000f00
001e00
007c00
ENDCHAR
STARTCHAR Ccaron
ENCODING 200
SWIDTH 689 0
DWIDTH 23 0
BBX 20 33 1 0
BITMAP
010020
018060
00e1c0
007380
003f00
001e00
001e00
000800
000000
001f80
03ffe0
07c0f0
1f8070
3f0030
3e0030
7e0010
7e0010
7c0000
fc0000
fc0000
fc0000
fc0000
fc0000
fc0000
7c0000
7e0010
7e0010
3e0030
3f0030
1f8070
0fe0f0
03ffe0
003f00
ENDCHAR
STARTCHAR Eacute
ENCODING 201
SWIDTH 629 0
DWIDTH 21 0
BBX 19 31 1 0
BITMAP
000600
000f00
003f00
007e00
00f000
018000
000000
ffffc0
1fffc0
1f03c0
1f01c0
1f00c0
1f00c0
1f0040
1f0000
1f0200
1f0600
1f0600
1ffe00
1ffe00
1f0600
1f0200
1f0200
1f0000
1f0020
1f0060
1f0060
1f00e0
1f81e0
1fffe0
ffffe0
ENDCHAR
STARTCHAR Eogonek
ENCODING 202
SWIDTH 629 0
DWIDTH 21 0
BBX 19 33 1 -9
BITMAP
ffffc0
1fffc0
1f03c0
1f01c0
1f00c0
1f00c0
1f0040
1f0000
1f0200
1f0600
1f0600
1ffe00
1ffe00
1f0600
1f0200
1f0200
1f0000
1f0020
1f0060
1f0060
1f00e0
1f81e0
1fffe0
ffffe0
001000
006000
00c000
018000
018000
038000
03c000
01f800
00e000
ENDCHAR
STARTCHAR Ediaeresis
ENCODING 203
SWIDTH 629 0
DWIDTH 21 0
BBX 19 29 1 0
BITMAP
0e0700
1f0f80
1f0f80
1f0f80
0e0700
ffffc0
1fffc0
1f03c0
1f01c0
1f00c0
1f00c0
1f0040
1f0000
1f0200
1f0600
1f0600
1ffe00
1ffe00
1f0600
1f0200
1f0200
1f0000
1f0020
1f0060
1f0060
1f00e0
1f81e0
1fffe0
ffffe0
ENDCHAR
STARTCHAR Ecaron
ENCODING 204
SWIDTH 629 0
DWIDTH 21 0
BBX 19 33 1 0
BITMAP
100200
180600
0e1c00
073800
03f000
01e000
01e000
008000
000000
ffffc0
1fffc0
1f03c0
1f01c0
1f00c0
1f00c0
1f0040
1f0000
1f0200
1f0600
1f0600
1ffe00
1ffe00
1f0600
1f0200
1f0200
1f0000
1f0020
1f0060
1f0060
1f00e0
1f81e0
1fffe0
ffffe0
ENDCHAR
STARTCHAR Iacute
ENCODING 205
SWIDTH 384 0
DWIDTH 13 0
BBX 11 31 1 0
BITMAP
00c0
01e0
07e0
0fc0
1e00
3800
0000
ffe0
1f00
1f00
1f00
1f00
1f00
1f00
1f00
1f00
1f00
1f00
1f00
1f00
1f00
1f00
1f00
1f00
1f00
1f00
1f00
1f00
1f00
1f00
ffe0
ENDCHAR
STARTCHAR Icircumflex
ENCODING 206
SWIDTH 384 0
DWIDTH 13 0
BBX 13 30 0 0
BITMAP
0200
0f80
1fc0
3fe0
f078
0000
7ff0
0f80
0f80
0f80
0f80
0f80
0f80
0f80
0f80
0f80
0f80
0f80
0f80
0f80
0f80
0f80
0f80
0f80
0f80
0f80
0f80
0f80
0f80
7ff0
ENDCHAR
STARTCHAR Dcaron
ENCODING 207
SWIDTH 777 0
DWIDTH 26 0
BBX 24 33 1 0
BITMAP
080100
0c0300
070e00
039c00
01f800
00f000
00f000
004000
000000
fffc00
1fffc0
1f03f0
1f01f8
1f00fc
1f007c
1f007e
1f003e
1f003e
1f003f
1f003f
1f003f
1f003f
1f003f
1f003f
1f003f
1f007e
1f007e
1f007e
1f00fc
1f01f8
1f03f0
1fffc0
fffe00
ENDCHAR
STARTCHAR Dstroke
ENCODING 208
SWIDTH 783 0
DWIDTH 26 0
BBX 24 24 1 0
BITMAP
fffc00
1fffc0
1f03f0
1f01f8
1f00fc
1f007c
1f007e
1f007e
1f003e
1f003f
1f003f
fff83f
fff83f
1f003f
1f003f
1f003f
1f003e
1f007e
1f007c
1f00fc
1f00f8
1f03f0
1fffc0
fffe00
ENDCHAR
STARTCHAR Nacute
ENCODING 209
SWIDTH 739 0
DWIDTH 25 0
BBX 22 33 1 0
BITMAP
000040
0001e0
0003e0
0007c0
000f80
001e00
003800
002000
000000
ff01fc
1f8078
1f8030
1fc030
1fe030
1be030
1bf030
19f030
18f830
18fc30
187c30
187e30
183e30
183f30
181fb0
180fb0
180ff0
1807f0
1807f0
1803f0
1801f0
1801f0
3c00f0
7f00f0
ENDCHAR
STARTCHAR Ncaron
ENCODING 210
SWIDTH 739 0
DWIDTH 25 0
BBX 22 33 1 0
BITMAP
040080
060180
038700
01ce00
00fc00
007800
007800
002000
000000
ff01fc
1f8078
1f8030
1fc030
1fe030
1be030
1bf030
19f030
18f830
18fc30
187c30
187e30
183e30
183f30
181fb0
180fb0
180ff0
1807f0
1807f0
1803f0
1801f0
1801f0
3c00f0
7f00f0
ENDCHAR
STARTCHAR Oacute
ENCODING 211
SWIDTH 768 0
DWIDTH 26 0
BBX 23 30 1 0
BITMAP
000380
000fc0
001f80
003e00
00f000
008000
007c00
03ff80
0fc7e0
1f01f0
3e00f8
3e00f8
7e00fc
7e00fc
7c007c
fc007e
fc007e
fc007e
fc007e
fc007e
fc007e
7c007c
7c007c
7e00fc
3e00f8
3e00f8
1f01f0
0fc7e0
03ff80
007c00
ENDCHAR
STARTCHAR Ocircumflex
ENCODING 212
SWIDTH 768 0
DWIDTH 26 0
BBX 23 30 1 0
BITMAP
001000
007c00
00fe00
01ff00
038380
060040
007c00
03ff80
0fc7e0
1f01f0
3e00f8
3e00f8
7e00fc
7e00fc
7c007c
fc007e
fc007e
fc007e
fc007e
fc007e
fc007e
7c007c
7c007c
7e00fc
3e00f8
3e00f8
1f01f0
0fc7e0
03ff80
007c00
ENDCHAR
STARTCHAR Odoubleacute
ENCODING 213
SWIDTH 768 0
DWIDTH 26 0
BBX 23 33 1 0
BITMAP
003060
0078f0
0078e0
0071e0
00e1c0
00c180
018300
008200
000000
007c00
03ff80
0fc7e0
1f01f0
3e00f8
3e00f8
7e00fc
7e00fc
7c007c
fc007e
fc007e
fc007e
fc007e
fc007e
fc007e
7c007c
7c007c
7e00fc
3e00f8
3e00f8
1f01f0
0fc7e0
03ff80
007c00
ENDCHAR
STARTCHAR Odiaeresis
ENCODING 214
SWIDTH 768 0
DWIDTH 26 0
BBX 23 29 1 0
BITMAP
0381c0
07c3e0
07c3e0
07c3e0
0381c0
007c00
03ff80
0fc7e0
1f01f0
3e00f8
3e00f8
7e00fc
7e00fc
7c007c
fc007e
fc007e
fc007e
fc007e
fc007e
fc007e
7c007c
7c007c
7e00fc
3e00f8
3e00f8
1f01f0
0fc7e0
03ff80
007c00
ENDCHAR
STARTCHAR multiply
ENCODING 215
SWIDTH 600 0
DWIDTH 20 0
BBX 15 15 3 1
BITMAP
4008
600c
f01e
783c
3c78
1ef0
0fe0
07c0
07c0
0ee0
1c70
3838
f01e
600c
4008
ENDCHAR
STARTCHAR Rcaron
ENCODING 216
SWIDTH 684 0
DWIDTH 23 0
BBX 22 33 1 0
BITMAP
100200
180600
0e1c00
073800
03f000
01e000
01e000
008000
000000
fffc00
1fff80
1f0fc0
1f07e0
1f03f0
1f03f0
1f03f0
1f03f0
1f03e0
1f07e0
1f07c0
1f0f80
1ffe00
1fff00
1f0f80
1f0fc0
1f07c0
1f07c0
1f07e0
1f07e0
1f03f0
1f03f0
1f03f8
ffe07c
ENDCHAR
STARTCHAR Uring
ENCODING 217
SWIDTH 786 0
DWIDTH 26 0
BBX 23 32 2 0
BITMAP
003c00
006600
00c300
00c300
00c300
006600
003c00
000000
ffc7fe
3e00f8
3e00f8
3e00f8
3e00f8
3e00f8
3e00f8
3e00f8
3e00f8
3e00f8
3e00f8
3e00f8
3e00f8
3e00f8
3e00f8
3e00f8
3e00f8
3e00f8
3e00f0
1f01f0
1f01f0
0f83e0
07ff80
00fc00
ENDCHAR
STARTCHAR Uacute
ENCODING 218
SWIDTH 786 0
DWIDTH 26 0
BBX 23 31 2 0
BITMAP
000180
0003c0
000fc0
001f80
007c00
00e000
000000
ffc7fe
3e00f8
3e00f8
3e00f8
3e00f8
3e00f8
3e00f8
3e00f8
3e00f8
3e00f8
3e00f8
3e00f8
3e00f8
3e00f8
3e00f8
3e00f8
3e00f8
3e00f8
3e00f0
1f01f0
1f01f0
0f83e0
07ff80
00fc00
ENDCHAR
STARTCHAR Udoubleacute
ENCODING 219
SWIDTH 786 0
DWIDTH 26 0
BBX 23 33 2 0
BITMAP
003060
0078f0
0078e0
0071e0
00e1c0
00c180
018300
008200
000000
ffc7fe
3e00f8
3e00f8
3e00f8
3e00f8
3e00f8
3e00f8
3e00f8
3e00f8
3e00f8
3e00f8
3e00f8
3e00f8
3e00f8
3e00f8
3e00f8
3e00f8
3e00f8
3e00f0
1f01f0
1f01f0
0f83e0
07ff80
00fc00
ENDCHAR
STARTCHAR Udiaeresis
ENCODING 220
SWIDTH 786 0
DWIDTH 26 0
BBX 23 29 2 0
BITMAP
070380
0f87c0
0f87c0
0f87c0
070380
ffc7fe
3e00f8
3e00f8
3e00f8
3e00f8
3e00f8
3e00f8
3e00f8
3e00f8
3e00f8
3e00f8
3e00f8
3e00f8
3e00f8
3e00f8
3e00f8
3e00f8
3e00f8
3e00f0
1f01f0
1f01f0
0f83e0
07ff80
00fc00
ENDCHAR
STARTCHAR Yacute
ENCODING 221
SWIDTH 617 0
DWIDTH 21 0
BBX 22 31 0 0
BITMAP
000180
000780
000fc0
003f00
007c00
00e000
000000
ffc3fc
3f00f0
1f00e0
1f80c0
0f81c0
0f8180
0fc380
07c300
07c700
03e600
03e600
01fc00
01fc00
01f800
00f800
00f800
00f800
00f800
00f800
00f800
00f800
00f800
00f800
07ff00
ENDCHAR
STARTCHAR Tcedilla
ENCODING 222
SWIDTH 624 0
DWIDTH 21 0
BBX 19 32 1 -8
BITMAP
ffffe0
ffffe0
e1f0e0
c1f060
c1f060
c1f060
81f020
01f000
01f000
01f000
01f000
01f000
01f000
01f000
01f000
01f000
01f000
01f000
01f000
01f000
01f000
01f000
01f000
0ffe00
00e000
00c000
01e000
01f000
00f800
007800
00f000
03e000
ENDCHAR
STARTCHAR ssharp
ENCODING 223
SWIDTH 662 0
DWIDTH 22 0
BBX 20 25 1 0
BITMAP
00f000
03fe00
0f9f80
1f0f80
1f07c0
3e07c0
3e07c0
3e0780
3e0600
3e3c00
3e3c00
3e7c00
3e7e00
3e3f00
3e3f80
3e1fc0
3e0fe0
3e07f0
3e03f0
3e01f0
3e00f0
3e38f0
3e3ce0
3e3fc0
ff8700
ENDCHAR
STARTCHAR racute
ENCODING 224
SWIDTH 440 0
DWIDTH 15 0
BBX 15 26 1 0
BITMAP
0004
001e
003e
007c
00f8
01e0
0380
0200
0000
1e38
fef8
7ffc
3ff8
3e30
3e00
3e00
3e00
3e00
3e00
3e00
3e00
3e00
3e00
3e00
3e00
ffc0
ENDCHAR
STARTCHAR aacute
ENCODING 225
SWIDTH 544 0
DWIDTH 18 0
BBX 18 25 1 0
BITMAP
000800
001c00
003e00
007c00
00f000
03c000
070000
040000
07e000
3ffc00
7c7c00
7c3e00
f83e00
703e00
00fe00
07fe00
1e3e00
7c3e00
783e00
f83e00
f83e00
7c7e00
7fff00
7f9fc0
1c0c00
ENDCHAR
STARTCHAR acircumflex
ENCODING 226
SWIDTH 544 0
DWIDTH 18 0
BBX 18 25 1 0
BITMAP
018000
03c000
07e000
0ff000
0e7800
181800
300e00
200400
07e000
3ffc00
7c7c00
7c3e00
f83e00
703e00
00fe00
07fe00
1e3e00
7c3e00
783e00
f83e00
f83e00
7c7e00
7fff00
7f9fc0
1c0c00
ENDCHAR
STARTCHAR abreve
ENCODING 227
SWIDTH 544 0
DWIDTH 18 0
BBX 18 23 1 0
BITMAP
100800
181800
0ff000
0ff000
03c000
000000
07e000
3ffc00
7c7c00
7c3e00
f83e00
703e00
00fe00
07fe00
1e3e00
7c3e00
783e00
f83e00
f83e00
7c7e00
7fff00
7f9fc0
1c0c00
ENDCHAR
STARTCHAR adiaeresis
ENCODING 228
SWIDTH 544 0
DWIDTH 18 0
BBX 18 24 1 0
BITMAP
1c1c00
3e3e00
3e3e00
3e3e00
1c1c00
000000
000000
07e000
3ffc00
7c7c00
7c3e00
f83e00
703e00
00fe00
07fe00
1e3e00
7c3e00
783e00
f83e00
f83e00
7c7e00
7fff00
7f9fc0
1c0c00
ENDCHAR
STARTCHAR lacute
ENCODING 229
SWIDTH 309 0
DWIDTH 10 0
BBX 12 34 1 0
BITMAP
0020
00f0
01f0
03e0
07c0
0f00
1c00
1000
0000
0e00
fe00
7e00
3e00
3e00
3e00
3e00
3e00
3e00
3e00
3e00
3e00
3e00
3e00
3e00
3e00
3e00
3e00
3e00
3e00
3e00
3e00
3e00
3e00
ff80
ENDCHAR
STARTCHAR cacute
ENCODING 230
SWIDTH 494 0
DWIDTH 16 0
BBX 16 26 1 0
BITMAP
0002
000f
001f
003e
007c
00f0
01c0
0100
0000
03c0
0ff8
3c7c
3c3c
7c3c
7818
f800
f800
f800
f800
f800
fc06
7c0c
7e0c
3ff8
1ff0
0380
ENDCHAR
STARTCHAR ccedilla
ENCODING 231
SWIDTH 494 0
DWIDTH 16 0
BBX 16 25 1 -8
BITMAP
01e0
0ffc
3e3e
3c1f
7c1e
780c
f800
f800
f800
f800
f800
fc03
7c02
7f06
3ffc
1ff8
03c0
0180
0380
07c0
07e0
01f0
00f0
01e0
0fc0
ENDCHAR
STARTCHAR ccaron
ENCODING 232
SWIDTH 494 0
DWIDTH 16 0
BBX 15 26 1 0
BITMAP
2004
300c
1c38
0e70
07e0
03c0
03c0
0100
0000
03c0
0ff8
3c7c
3c3c
7c3c
7818
f800
f800
f800
f800
f800
fc06
7c0c
7e0c
3ff8
1ff0
0380
ENDCHAR
STARTCHAR eacute
ENCODING 233
SWIDTH 519 0
DWIDTH 17 0
BBX 16 25 1 0
BITMAP
0008
001c
003e
007c
00f0
03c0
0700
0400
03c0
0ff8
3e3c
3c1e
781e
781f
f81f
ffff
ffff
f800
f800
fc00
7c03
7e06
3ffc
1ff8
03e0
ENDCHAR
STARTCHAR eogonek
ENCODING 234
SWIDTH 519 0
DWIDTH 17 0
BBX 16 26 1 -9
BITMAP
03c0
0ff8
3e3c
3c1e
781e
781f
f81f
ffff
ffff
f800
f800
fc00
7c03
7e06
3ffc
1ff8
03e0
0040
0180
0300
0600
0600
0e00
0f00
07e0
0380
ENDCHAR
STARTCHAR ediaeresis
ENCODING 235
SWIDTH 519 0
DWIDTH 17 0
BBX 16 24 1 0
BITMAP
1c1c
3e3e
3e3e
3e3e
1c1c
0000
0000
03c0
0ff8
3e3c
3c1e
781e
781f
f81f
ffff
ffff
f800
f800
fc00
7c03
7e06
3ffc
1ff8
03e0
ENDCHAR
STARTCHAR ecaron
ENCODING 236
SWIDTH 519 0
DWIDTH 17 0
BBX 16 26 1 0
BITMAP
2004
300c
1c38
0e70
07e0
03c0
03c0
0100
0000
03c0
0ff8
3e3c
3c1e
781e
781f
f81f
ffff
ffff
f800
f800
fc00
7c03
7e06
3ffc
1ff8
03e0
ENDCHAR
STARTCHAR iacute
ENCODING 237
SWIDTH 316 0
DWIDTH 11 0
BBX 10 25 1 0
BITMAP
0180
03c0
07c0
0f80
1e00
3800
6000
4000
0e00
fe00
7e00
3e00
3e00
3e00
3e00
3e00
3e00
3e00
3e00
3e00
3e00
3e00
3e00
3e00
ff80
ENDCHAR
STARTCHAR icircumflex
ENCODING 238
SWIDTH 316 0
DWIDTH 11 0
BBX 12 25 -1 0
BITMAP
0200
0700
0f80
1fc0
38e0
7070
c030
0000
0380
3f80
1f80
0f80
0f80
0f80
0f80
0f80
0f80
0f80
0f80
0f80
0f80
0f80
0f80
0f80
3fe0
ENDCHAR
STARTCHAR dcaron
ENCODING 239
SWIDTH 750 0
DWIDTH 25 0
BBX 24 28 1 0
BITMAP
00000c
00001e
00001e
00039f
003f8f
001f8e
000f8e
000f8c
000f98
000fb0
000f90
01cf80
0fff80
3e1f80
3c0f80
7c0f80
780f80
f80f80
f80f80
f80f80
f80f80
f80f80
f80f80
7c0f80
7c0f80
3e1f80
1fef80
070fe0
ENDCHAR
STARTCHAR dstroke
ENCODING 240
SWIDTH 660 0
DWIDTH 22 0
BBX 21 25 1 0
BITMAP
000380
003f80
001f80
000f80
00fff8
00fff8
000f80
000f80
01cf80
0fff80
3e1f80
3c0f80
7c0f80
780f80
f80f80
f80f80
f80f80
f80f80
f80f80
f80f80
7c0f80
7c0f80
3e1f80
1fef80
070fe0
ENDCHAR
STARTCHAR nacute
ENCODING 241
SWIDTH 638 0
DWIDTH 21 0
BBX 20 26 1 0
BITMAP
000100
000780
000f80
001f00
003e00
007800
00e000
008000
000000
0e0e00
fe7f80
7fff80
3f0fc0
3e07c0
3e07c0
3e07c0
3e07c0
3e07c0
3e07c0
3e07c0
3e07c0
3e07c0
3e07c0
3e07c0
3e07c0
ff9ff0
ENDCHAR
STARTCHAR ncaron
ENCODING 242
SWIDTH 638 0
DWIDTH 21 0
BBX 20 26 1 0
BITMAP
100200
180600
0e1c00
073800
03f000
01e000
01e000
008000
000000
0e0e00
fe7f80
7fff80
3f0fc0
3e07c0
3e07c0
3e07c0
3e07c0
3e07c0
3e07c0
3e07c0
3e07c0
3e07c0
3e07c0
3e07c0
3e07c0
ff9ff0
ENDCHAR
STARTCHAR oacute
ENCODING 243
SWIDTH 585 0
DWIDTH 20 0
BBX 17 25 1 0
BITMAP
000800
001c00
003e00
007c00
00f000
01c000
078000
020000
03e000
1ffc00
3e3e00
7c1f00
7c1f00
f80f80
f80f80
f80f80
f80f80
f80f80
f80f80
f80f80
7c1f00
7c1f00
3e3e00
1ffc00
03e000
ENDCHAR
STARTCHAR ocircumflex
ENCODING 244
SWIDTH 585 0
DWIDTH 20 0
BBX 17 25 1 0
BITMAP
008000
01c000
03e000
07f000
0e3800
1c1c00
300600
100200
03e000
1ffc00
3e3e00
7c1f00
7c1f00
f80f80
f80f80
f80f80
f80f80
f80f80
f80f80
f80f80
7c1f00
7c1f00
3e3e00
1ffc00
03e000
ENDCHAR
STARTCHAR odoubleacute
ENCODING 245
SWIDTH 585 0
DWIDTH 20 0
BBX 17 26 1 0
BITMAP
018300
03c780
03c700
038f00
070e00
060c00
0c1800
041000
000000
03e000
1ffc00
3e3e00
7c1f00
7c1f00
f80f80
f80f80
f80f80
f80f80
f80f80
f80f80
f80f80
7c1f00
7c1f00
3e3e00
1ffc00
03e000
ENDCHAR
STARTCHAR odiaeresis
ENCODING 246
SWIDTH 585 0
DWIDTH 20 0
BBX 17 24 1 0
BITMAP
1c1c00
3e3e00
3e3e00
3e3e00
1c1c00
000000
000000
03e000
1ffc00
3e3e00
7c1f00
7c1f00
f80f80
f80f80
f80f80
f80f80
f80f80
f80f80
f80f80
7c1f00
7c1f00
3e3e00
1ffc00
03e000
ENDCHAR
STARTCHAR division
ENCODING 247
SWIDTH 600 0
DWIDTH 20 0
BBX 17 17 2 0
BITMAP
008000
01c000
03e000
01c000
008000
000000
000000
ffff80
ffff80
ffff80
000000
000000
008000
01c000
03e000
01c000
008000
ENDCHAR
STARTCHAR rcaron
ENCODING 248
SWIDTH 440 0
DWIDTH 15 0
BBX 14 26 1 0
BITMAP
4008
6018
3870
1ce0
0fc0
0780
0780
0200
0000
1e38
fef8
7ffc
3ff8
3e30
3e00
3e00
3e00
3e00
3e00
3e00
3e00
3e00
3e00
3e00
3e00
ffc0
ENDCHAR
STARTCHAR uring
ENCODING 249
SWIDTH 629 0
DWIDTH 21 0
BBX 19 25 1 0
BITMAP
01e000
033000
061800
061800
061800
033000
01e000
000000
0e0380
fe3f80
7e0f80
3e0f80
3e0f80
3e0f80
3e0f80
3e0f80
3e0f80
3e0f80
3e0f80
3e0f80
3e0f80
3f1f80
1fff80
1fe780
070fe0
ENDCHAR
STARTCHAR uacute
ENCODING 250
SWIDTH 629 0
DWIDTH 21 0
BBX 19 25 1 0
BITMAP
000200
000f00
001f00
003e00
007800
00f000
01c000
010000
0e0380
fe3f80
7e0f80
3e0f80
3e0f80
3e0f80
3e0f80
3e0f80
3e0f80
3e0f80
3e0f80
3e0f80
3e0f80
3f1f80
1fff80
1fe780
070fe0
ENDCHAR
STARTCHAR udoubleacute
ENCODING 251
SWIDTH 629 0
DWIDTH 21 0
BBX 19 26 1 0
BITMAP
018300
03c780
03c700
038f00
070e00
060c00
0c1800
041000
000000
0e0380
fe3f80
7e0f80
3e0f80
3e0f80
3e0f80
3e0f80
3e0f80
3e0f80
3e0f80
3e0f80
3e0f80
3e0f80
3f1f80
1fff80
1fe780
070fe0
ENDCHAR
STARTCHAR udiaeresis
ENCODING 252
SWIDTH 629 0
DWIDTH 21 0
BBX 19 24 1 0
BITMAP
0e0e00
1f1f00
1f1f00
1f1f00
0e0e00
000000
000000
0e0380
fe3f80
7e0f80
3e0f80
3e0f80
3e0f80
3e0f80
3e0f80
3e0f80
3e0f80
3e0f80
3e0f80
3e0f80
3f1f80
1fff80
1fe780
070fe0
ENDCHAR
STARTCHAR yacute
ENCODING 253
SWIDTH 524 0
DWIDTH 17 0
BBX 20 33 -1 -8
BITMAP
000180
0007c0
000f80
001f00
003c00
007000
00e000
000000
ffc7f0
3f01c0
1f01c0
1f0180
1f8380
0f8300
0fc300
07c700
07c600
07e600
03ec00
03fc00
01fc00
01f800
01f800
00f800
00f000
00f000
00e000
006000
0cc000
1fc000
1f8000
1f8000
0e0000
ENDCHAR
STARTCHAR tcedilla
ENCODING 254
SWIDTH 370 0
DWIDTH 12 0
BBX 11 29 1 -8
BITMAP
0600
0e00
1e00
1e00
ffc0
ffc0
3e00
3e00
3e00
3e00
3e00
3e00
3e00
3e00
3e00
3e00
3e00
3f00
1fe0
1fc0
0700
0e00
0c00
1e00
1f00
0f80
0780
0f00
3e00
ENDCHAR
STARTCHAR abovedot
ENCODING 255
SWIDTH 430 0
DWIDTH 14 0
BBX 5 5 5 19
BITMAP
70
f8
f8
f8
70
ENDCHAR
ENDFONT
